<svg width="111" height="641" viewBox="0 0 111 641" fill="none" xmlns="http://www.w3.org/2000/svg">
<path id="Vector 1" d="M45.5001 450V1H68.5002V450H78.5002C78.5002 450 110.5 450 110.5 485V626.5C110.5 626.5 110.5 640 99.5002 640C88.5002 640 88.5002 626.5 88.5002 626.5V499C88.5002 499 88.5002 485 78.5002 485C68.5002 485 68.5002 499 68.5002 499V626.5C68.5002 626.5 68.5001 640 57.0001 640C45.5001 640 45.5001 626.5 45.5001 626.5V499C45.5001 499 45.5001 485 35.0001 485C24.5001 485 24.5001 499 24.5001 499V626.5C23.0073 636.784 20.1386 639.154 13.0001 640C1.50011 640 1.00011 626.5 1.00011 626.5V485C1.00011 450 35.0001 450 35.0001 450H45.5001Z" stroke="black"/>
</svg>
