<?xml version="1.0" standalone="no"?>
<!DOCTYPE svg PUBLIC "-//W3C//DTD SVG 20010904//EN"
 "http://www.w3.org/TR/2001/REC-SVG-20010904/DTD/svg10.dtd">
<svg version="1.0" xmlns="http://www.w3.org/2000/svg"
 width="82.000000pt" height="82.000000pt" viewBox="0 0 82.000000 82.000000"
 preserveAspectRatio="xMidYMid meet">
<metadata>
Created by potrace 1.14, written by Peter Selinger 2001-2017
</metadata>
<g transform="translate(0.000000,82.000000) scale(0.100000,-0.100000)"
fill="#000000" stroke="none">
<path d="M322 789 c-51 -26 -77 -56 -99 -120 -14 -39 -23 -50 -45 -54 -36 -8
-95 -66 -114 -110 -33 -79 -6 -189 58 -238 34 -26 34 -26 33 -109 -1 -102 8
-133 43 -147 16 -6 110 -10 225 -9 253 0 247 -3 247 137 l0 97 44 46 c101 106
71 271 -60 329 -35 16 -43 25 -48 54 -8 43 -56 100 -107 126 -51 25 -122 25
-177 -2z m157 -47 c69 -35 100 -114 73 -185 -10 -27 -12 -41 -4 -49 17 -17 42
-1 53 32 12 34 20 36 54 14 60 -39 85 -126 55 -191 -21 -47 -45 -69 -96 -86
-45 -16 -55 -50 -16 -55 18 -3 22 -10 22 -43 l0 -39 -82 -1 c-197 -1 -321 1
-326 6 -3 3 -6 19 -6 36 -1 24 4 33 22 40 32 12 25 39 -13 53 -49 18 -82 45
-99 81 -36 75 -8 166 63 204 30 17 37 14 47 -21 10 -34 41 -50 54 -28 4 7 2
28 -6 46 -19 46 -17 80 7 124 40 71 127 99 198 62z m141 -667 c0 -21 -21 -23
-220 -21 -167 1 -185 3 -188 18 -3 16 12 18 202 17 167 0 206 -3 206 -14z"/>
<path d="M280 255 c-7 -8 -9 -30 -6 -52 3 -21 5 -41 6 -45 0 -13 38 -9 43 5 2
6 3 26 2 42 -2 17 -3 35 -4 41 -2 19 -28 24 -41 9z"/>
<path d="M403 263 c-15 -5 -18 -99 -4 -107 23 -15 41 7 41 49 0 43 -15 66 -37
58z"/>
<path d="M519 260 c-15 -9 -16 -18 -10 -88 1 -8 10 -12 24 -10 19 3 22 8 20
47 -1 49 -11 64 -34 51z"/>
</g>
</svg>
